<svg width="28" height="25" viewBox="0 0 28 25" fill="none" xmlns="http://www.w3.org/2000/svg">
<path d="M24.9952 3.00484C24.3599 2.36925 23.6056 1.86505 22.7754 1.52105C21.9451 1.17706 21.0553 1 20.1566 1C19.258 1 18.3681 1.17706 17.5379 1.52105C16.7077 1.86505 15.9534 2.36925 15.3181 3.00484L13.9997 4.32331L12.6812 3.00484C11.398 1.72159 9.65749 1.00067 7.84269 1.00067C6.0279 1.00067 4.28743 1.72159 3.00418 3.00484C1.72092 4.2881 1 6.02856 1 7.84336C1 9.65815 1.72092 11.3986 3.00418 12.6819L4.32264 14.0003L13.9997 23.6774L23.6767 14.0003L24.9952 12.6819C25.6307 12.0466 26.1349 11.2923 26.4789 10.4621C26.8229 9.63186 27 8.74201 27 7.84336C27 6.9447 26.8229 6.05485 26.4789 5.22464C26.1349 4.39444 25.6307 3.64014 24.9952 3.00484Z" stroke="#F6F6F6" stroke-width="2" stroke-linecap="round" stroke-linejoin="round"/>
</svg>
