<svg width="25" height="32" viewBox="0 0 25 32" fill="none" xmlns="http://www.w3.org/2000/svg">
<path d="M23.2698 30.9999L1.00011 30.5746" stroke="white" stroke-width="2" stroke-linecap="round" stroke-linejoin="round"/>
<path d="M19.5582 30.929L23.3643 26.0511L23.6951 8.73022C23.7076 8.07396 23.4589 7.43961 23.0037 6.96671C22.5486 6.4938 21.9242 6.22109 21.2679 6.20855L3.94705 5.87778C3.2908 5.86525 2.65645 6.11393 2.18354 6.5691C1.71064 7.02428 1.43793 7.64868 1.42539 8.30493L1.09462 25.6258L4.71172 30.6455L19.5582 30.929Z" stroke="white" stroke-width="2" stroke-linecap="round" stroke-linejoin="round"/>
<path d="M7.65852 5.9488C7.68359 4.6363 8.22902 3.3875 9.17482 2.47714C10.1206 1.56678 11.3893 1.06943 12.7018 1.0945C14.0144 1.11956 15.2631 1.66499 16.1735 2.6108C17.0839 3.5566 17.5812 4.82531 17.5562 6.13782" stroke="white" stroke-width="2" stroke-linecap="round" stroke-linejoin="round"/>
</svg>
